HIERARCHY
ROOT Hips
{
	OFFSET 0.00000 0.00000 0.00000
	CHANNELS 6 Xposition Yposition Zposition Zrotation Yrotation Xrotation 
	JOINT RightUpLegDummy
	{
		OFFSET 0 0 0
		CHANNELS 3 Zrotation Yrotation Xrotation
		JOINT RightUpLeg
		{
			OFFSET -3.52197 -3.41223 0.04002
			CHANNELS 3 Zrotation Yrotation Xrotation
			JOINT RightLeg
			{
				OFFSET 0.00006 -17.42390 1.60435
				CHANNELS 3 Zrotation Yrotation Xrotation
				JOINT RightFoot
				{
					OFFSET 0.06153 -16.50078 -1.63901
					CHANNELS 3 Zrotation Yrotation Xrotation
					JOINT RightToes
					{
						OFFSET 0.00298 -1.73825 3.34613
						CHANNELS 3 Zrotation Yrotation Xrotation
						End Site
						{
							OFFSET 0.00480 -0.05416 3.85043
						}
					}
				}
			}
		}
	}
	JOINT SpineDummy
	{
		OFFSET 0 0 0
		CHANNELS 3 Zrotation Yrotation Xrotation
		JOINT Spine
		{
			OFFSET 0.00000 4.68130 0.00000
			CHANNELS 3 Zrotation Yrotation Xrotation
			JOINT Spine1
			{
				OFFSET -0.00000 10.10138 0.05002
				CHANNELS 3 Zrotation Yrotation Xrotation
				JOINT HEadDummy
				{
					OFFSET 0 0 0
					CHANNELS 3 Zrotation Yrotation Xrotation
					JOINT Head
					{
						OFFSET -0.00000 3.43865 0.00438
						CHANNELS 3 Zrotation Yrotation Xrotation
						End Site
						{
							OFFSET -0.11417 5.02924 0.98962
						}
					}
				}
				JOINT LeftShoulder1Dummy
				{
					OFFSET 0 0 0
					CHANNELS 3 Zrotation Yrotation Xrotation
					JOINT LeftShoulder1
					{
						OFFSET 3.53937 -0.14262 -0.08662
						CHANNELS 3 Zrotation Yrotation Xrotation
						JOINT LeftArm
						{
							OFFSET 4.04833 -0.00133 0.12681
							CHANNELS 3 Zrotation Yrotation Xrotation
							JOINT LeftForeArm
							{
								OFFSET 10.33880 -0.01036 -0.55515
								CHANNELS 3 Zrotation Yrotation Xrotation
								JOINT LeftHand
								{
									OFFSET 8.69677 0.07543 0.40060
									CHANNELS 3 Zrotation Yrotation Xrotation
									End Site
									{
										OFFSET 5.28377 -0.21905 0.59205
									}
								}
							}
						}
					}
				}
				JOINT RightShoulderDummy
				{
					OFFSET 0 0 0
					CHANNELS 3 Zrotation Yrotation Xrotation
					JOINT RightShoulder
					{
						OFFSET -3.53937 -0.14262 -0.08660
						CHANNELS 3 Zrotation Yrotation Xrotation
						JOINT RightArm
						{
							OFFSET -4.04833 -0.00133 0.12683
							CHANNELS 3 Zrotation Yrotation Xrotation
							JOINT RightForeArm
							{
								OFFSET -10.37987 -0.01039 -0.55511
								CHANNELS 3 Zrotation Yrotation Xrotation
								JOINT RightHand
								{
									OFFSET -8.67398 0.07538 0.40058
									CHANNELS 3 Zrotation Yrotation Xrotation
									End Site
									{
										OFFSET -5.24810 -0.21916 0.59204
									}
								}
							}
						}
					}
				}
			}
		}
	}
	JOINT LeftUpLegDummy
	{
		OFFSET 0 0 0
		CHANNELS 3 Zrotation Yrotation Xrotation
		JOINT LeftUpLeg
		{
			OFFSET 3.52197 -3.41223 0.04002
			CHANNELS 3 Zrotation Yrotation Xrotation
			JOINT LeftLeg
			{
				OFFSET -0.00012 -17.42399 1.60337
				CHANNELS 3 Zrotation Yrotation Xrotation
				JOINT LeftFoot
				{
					OFFSET -0.09972 -16.50070 -1.63802
					CHANNELS 3 Zrotation Yrotation Xrotation
					JOINT LeftToes
					{
						OFFSET -0.01575 -1.73823 3.34611
						CHANNELS 3 Zrotation Yrotation Xrotation
						End Site
						{
							OFFSET 0.03150 -0.01868 3.85031
						}
					}
				}
			}
		}
	}
}
MOTION
Frames: 17
Frame Time: 0.033333
12.4602 38.7287 -12.2628 5.5918 65.3549 -0.1188 0.0000 0.0000 0.0000 4.6321 0.9912 -13.7894 -3.8845 -33.6670 3.5693 -7.3990 0.8193 1.2504 0.0000 -0.0000 0.0000 0.0000 0.0000 0.0000 -1.3096 -0.4763 8.0368 5.7073 -1.5525 -0.6414 -0.0000 0.0000 -0.0000 2.8309 -2.3193 -2.6807 -0.0000 0.0000 -0.0000 -35.0474 -2.7394 2.5655 -40.0110 -18.1054 -16.5442 -11.4892 5.3516 38.9368 15.4159 -4.5015 -1.2810 -0.0000 0.0000 -0.0000 35.2124 5.2263 3.6003 41.5629 2.8806 -16.5570 11.1650 -2.6309 22.9227 -9.8950 1.4165 -0.5677 0.0000 0.0000 0.0000 1.5208 16.1730 17.5064 2.7399 6.5632 17.4598 -10.2830 -0.0497 -12.7634 0.0000 0.0000 -0.0000
13.4964 38.6423 -11.7473 3.3543 63.8975 -2.6235 0.0000 0.0000 0.0000 5.8483 0.9802 -13.6851 -5.3345 -31.6264 7.8826 -8.6727 0.9956 1.6578 0.0000 -0.0000 0.0000 0.0000 0.0000 0.0000 -0.0888 -0.3671 7.8896 5.6198 -1.3918 -0.5819 -0.0000 0.0000 -0.0000 2.7014 -1.9535 -2.5604 -0.0000 0.0000 -0.0000 -35.2463 -2.7564 2.5851 -41.5671 -16.2606 -17.8479 -10.8671 5.3596 38.9236 15.5995 -4.3024 -1.2714 -0.0000 0.0000 -0.0000 35.2782 5.2348 3.6096 41.0608 3.7307 -16.1713 11.3132 -2.5500 22.7173 -10.1574 1.4466 -0.5856 0.0000 0.0000 0.0000 4.3748 18.9719 17.1788 2.7731 4.2729 23.3721 -14.3024 0.1895 -10.3926 0.0000 0.0000 -0.0000
14.3972 38.5358 -11.2316 2.0638 62.0536 -4.2286 0.0000 0.0000 0.0000 6.8194 0.8030 -13.5534 -6.3776 -28.9266 12.0657 -8.8612 0.9011 0.2269 0.0000 -0.0000 0.0000 0.0000 0.0000 0.0000 0.5575 -0.0497 8.4297 5.6237 -1.0097 -1.2181 -0.0000 0.0000 -0.0000 2.9361 -1.6915 -2.0456 -0.0000 0.0000 -0.0000 -34.7438 -2.7750 2.5606 -43.6728 -14.4948 -18.9931 -10.2161 5.3526 39.5669 15.4124 -4.0463 -1.2238 -0.0000 0.0000 -0.0000 35.2662 5.2340 3.6082 40.6174 4.8731 -16.1608 11.2388 -2.7329 23.1163 -10.3523 1.4647 -0.5986 0.0000 0.0000 0.0000 6.5332 20.6191 15.1475 3.1419 3.6473 31.4988 -16.5459 0.8960 -5.3648 0.0000 0.0000 -0.0000
15.1767 38.3951 -10.7299 1.6114 60.3217 -5.0652 0.0000 0.0000 0.0000 7.5307 0.5564 -13.3697 -7.3323 -26.6815 15.9103 -9.1651 0.7559 -1.8419 0.0000 -0.0000 0.0000 0.0000 0.0000 0.0000 0.4945 0.2633 9.4435 5.9183 -0.6760 -2.1459 -0.0000 0.0000 -0.0000 3.3380 -1.7460 -1.5129 -0.0000 0.0000 -0.0000 -34.1321 -2.8546 2.5536 -45.4571 -13.0073 -19.4350 -9.8933 5.3226 40.9939 13.9596 -3.8927 -1.0867 -0.0000 0.0000 -0.0000 35.0508 5.1981 3.5743 40.3500 6.3362 -16.3080 11.0046 -2.6202 23.8011 -9.9755 1.4479 -0.5750 0.0000 0.0000 0.0000 7.6013 21.0124 11.4171 4.1109 3.5115 40.9295 -14.7014 1.7931 2.8770 0.0000 0.0000 -0.0000
15.8757 38.2350 -10.2472 1.3028 59.0375 -5.8324 0.0000 0.0000 0.0000 8.2285 0.4288 -13.0798 -8.4512 -25.1856 19.3623 -9.7991 0.6175 -3.9798 0.0000 -0.0000 0.0000 0.0000 0.0000 0.0000 0.1943 0.4106 10.5825 6.4121 -0.5653 -2.7582 -0.0000 0.0000 -0.0000 3.7291 -2.1374 -1.5877 -0.0000 0.0000 -0.0000 -34.1675 -2.9743 2.6040 -46.1419 -12.1125 -19.0825 -9.9818 5.2542 43.6846 12.0095 -4.2213 -0.9592 -0.0000 0.0000 -0.0000 34.7955 5.1538 3.5336 40.0182 8.0974 -16.0898 10.9241 -1.8536 23.7222 -9.5869 1.4129 -0.5493 0.0000 0.0000 0.0000 7.7072 19.6766 6.6822 4.9660 3.1027 49.8832 -9.8664 1.8932 11.0974 0.0000 0.0000 -0.0000
16.5823 38.1189 -9.7785 0.9061 57.9008 -6.6732 0.0000 0.0000 0.0000 8.9204 0.4138 -12.3492 -9.2616 -23.8702 21.9273 -10.0318 0.4330 -6.1680 0.0000 -0.0000 0.0000 0.0000 0.0000 0.0000 0.3184 0.4768 11.5058 6.4849 -0.4961 -2.8593 -0.0000 0.0000 -0.0000 4.1366 -2.7706 -2.4187 -0.0000 0.0000 -0.0000 -34.6913 -3.0222 2.6578 -46.0118 -11.8320 -18.5376 -10.1264 5.1585 47.1693 12.0012 -4.8025 -1.0169 -0.0000 0.0000 -0.0000 34.7561 5.1480 3.5278 39.4501 9.9798 -15.2614 11.1743 -0.5388 22.4014 -9.8539 1.4404 -0.5673 0.0000 0.0000 0.0000 7.1896 17.1135 1.8190 5.5989 2.6044 57.0189 -5.2937 1.1443 14.5024 0.0000 0.0000 -0.0000
17.3435 38.0989 -9.3136 0.8072 56.2575 -7.1162 0.0000 0.0000 0.0000 9.3631 0.3993 -11.0327 -9.2775 -22.1749 23.2273 -9.6566 0.2389 -8.1651 0.0000 -0.0000 0.0000 0.0000 0.0000 0.0000 0.9636 0.7296 12.0959 5.7506 -0.1142 -2.7263 -0.0000 0.0000 -0.0000 4.5199 -3.3888 -3.5539 -0.0000 0.0000 -0.0000 -35.0136 -2.9702 2.6579 -45.8580 -11.7234 -18.4897 -10.0285 5.1009 49.2099 14.5718 -4.7150 -1.2322 -0.0000 0.0000 -0.0000 34.8829 5.1748 3.5499 38.8022 11.7817 -14.1278 11.5522 0.9576 20.8338 -10.3175 1.5345 -0.6021 0.0000 0.0000 0.0000 6.2731 14.2479 -2.6733 6.8277 2.5912 61.6337 -2.6897 0.4889 12.3227 0.0000 0.0000 -0.0000
18.1209 38.1372 -8.8474 1.3255 53.7615 -6.8818 0.0000 0.0000 0.0000 9.4080 0.3035 -9.5350 -8.6800 -19.8760 23.8406 -9.3516 0.0864 -9.8364 0.0000 -0.0000 0.0000 0.0000 0.0000 0.0000 1.6612 1.3483 12.5124 4.5542 0.7297 -2.6644 -0.0000 0.0000 -0.0000 4.7029 -3.7168 -4.4085 -0.0000 0.0000 -0.0000 -34.9745 -2.9180 2.6340 -45.8478 -11.3391 -18.9263 -9.8691 5.1347 48.0983 17.0375 -4.0447 -1.3575 -0.0000 0.0000 -0.0000 34.9113 5.1890 3.5582 38.2965 13.4529 -13.0841 11.7995 2.3073 20.2207 -10.3305 1.6074 -0.6089 0.0000 0.0000 0.0000 5.1558 11.6159 -6.6265 8.4919 3.0008 63.4324 -1.6354 0.2286 7.9721 0.0000 0.0000 -0.0000
18.8863 38.2087 -8.3690 2.2653 50.6672 -6.2759 0.0000 0.0000 0.0000 9.0557 0.0492 -7.9540 -7.6108 -17.0916 24.0793 -9.6328 -0.0405 -11.3217 0.0000 -0.0000 0.0000 0.0000 0.0000 0.0000 2.0762 2.2011 12.8751 3.3931 1.8170 -2.6733 -0.0000 0.0000 -0.0000 4.7205 -3.8416 -4.6936 -0.0000 0.0000 -0.0000 -34.9013 -2.9265 2.6327 -45.5973 -10.7224 -19.2647 -9.9784 5.2182 45.0596 16.7911 -3.7588 -1.2984 -0.0000 0.0000 -0.0000 34.7551 5.1751 3.5387 37.9748 15.0750 -12.1075 11.9339 3.3477 20.4028 -10.2943 1.6830 -0.6129 0.0000 0.0000 0.0000 4.0213 8.9913 -9.9330 9.9027 3.7270 62.5601 -0.4510 0.0350 4.6463 0.0000 0.0000 -0.0000
19.6412 38.3104 -7.8683 3.2268 47.4734 -5.7115 0.0000 0.0000 0.0000 8.3902 -0.3699 -6.1479 -6.1502 -14.0920 23.9031 -10.1124 -0.1709 -12.7451 0.0000 -0.0000 0.0000 0.0000 0.0000 0.0000 2.3181 2.9688 13.2072 2.3234 2.8091 -2.6742 -0.0000 0.0000 -0.0000 4.8070 -4.0352 -4.5133 -0.0000 0.0000 -0.0000 -34.8758 -2.9246 2.6302 -44.9950 -10.2227 -19.1201 -10.3468 5.2718 42.8498 14.4418 -4.0424 -1.1425 -0.0000 0.0000 -0.0000 34.5400 5.1530 3.5109 37.8267 16.7238 -10.9118 12.0966 4.0443 20.3679 -10.7618 1.8399 -0.6549 0.0000 0.0000 0.0000 3.0639 5.9065 -12.4516 11.2880 5.0535 59.3919 1.2008 -0.1555 2.2447 0.0000 0.0000 -0.0000
20.3843 38.4285 -7.3354 3.9564 44.3877 -5.3400 0.0000 0.0000 0.0000 7.6410 -0.7811 -4.1635 -4.6301 -11.0634 23.3798 -10.2791 -0.2826 -13.9156 0.0000 -0.0000 0.0000 0.0000 0.0000 0.0000 2.5950 3.4910 13.4747 1.2382 3.5646 -2.6391 -0.0000 0.0000 -0.0000 4.9057 -4.0582 -4.2418 -0.0000 0.0000 -0.0000 -34.7141 -2.8530 2.5905 -44.3194 -9.9499 -18.6292 -10.7394 5.2705 42.7079 12.6717 -4.5077 -1.0448 -0.0000 0.0000 -0.0000 34.3357 5.1321 3.4845 37.8848 18.3727 -9.6482 12.2993 4.4086 20.0564 -11.2714 2.0206 -0.7028 0.0000 0.0000 0.0000 2.5004 2.4279 -14.1710 13.0053 7.4017 54.2808 2.7797 -0.2886 0.3433 0.0000 0.0000 -0.0000
21.1102 38.5650 -6.7553 4.3606 41.3768 -5.1379 0.0000 0.0000 0.0000 7.0493 -1.0363 -2.0531 -3.2671 -8.1091 22.4284 -10.4829 -0.3504 -14.5744 0.0000 -0.0000 0.0000 0.0000 0.0000 0.0000 2.8823 3.8290 13.5299 0.3377 4.1060 -2.4550 -0.0000 0.0000 -0.0000 4.6769 -3.3682 -4.2306 -0.0000 0.0000 -0.0000 -34.4538 -2.7787 2.5437 -43.7321 -9.7166 -18.1936 -10.9931 5.2446 43.6013 12.7475 -4.7478 -1.0761 -0.0000 0.0000 -0.0000 34.1187 5.1059 3.4550 38.1059 19.8873 -8.5382 12.4578 4.5980 20.0102 -11.2970 2.0882 -0.7106 0.0000 0.0000 0.0000 2.4534 -0.8967 -15.2519 14.2355 10.6220 47.5421 3.1866 -0.3012 -0.4628 0.0000 0.0000 -0.0000
21.8098 38.6990 -6.1235 4.4402 38.6331 -5.0053 0.0000 0.0000 0.0000 6.6449 -1.2213 0.0766 -2.0375 -5.4389 21.1072 -11.2642 -0.4126 -14.9614 0.0000 -0.0000 0.0000 0.0000 0.0000 0.0000 2.9976 3.9979 13.2426 -0.0583 4.3705 -2.0742 -0.0000 0.0000 -0.0000 4.1185 -2.2663 -4.4886 -0.0000 0.0000 -0.0000 -34.2856 -2.7645 2.5272 -43.1674 -9.4100 -18.1426 -11.0497 5.2247 44.3360 13.6713 -4.7365 -1.1563 -0.0000 0.0000 -0.0000 33.9364 5.0802 3.4289 38.3496 21.0555 -7.4302 12.5662 4.8639 20.0840 -11.3173 2.0491 -0.7085 0.0000 0.0000 0.0000 2.7286 -3.5356 -15.8720 13.4729 13.4156 39.4197 3.3591 -0.3201 -0.3738 0.0000 0.0000 -0.0000
22.4817 38.8018 -5.4487 4.2593 36.4679 -4.8209 0.0000 0.0000 0.0000 6.3148 -1.5348 2.1166 -0.8808 -3.2074 19.5473 -12.2291 -0.4930 -15.4124 0.0000 -0.0000 0.0000 0.0000 0.0000 0.0000 2.8904 3.9053 12.6635 0.0180 4.2511 -1.6990 -0.0000 0.0000 -0.0000 3.6969 -1.8014 -4.7024 -0.0000 0.0000 -0.0000 -34.1896 -2.7652 2.5214 -42.5802 -9.1022 -18.5796 -10.8768 5.2098 44.9735 14.2622 -4.7370 -1.2085 -0.0000 0.0000 -0.0000 33.8780 5.0678 3.4189 38.5543 21.6468 -6.2387 12.6495 5.2996 19.7642 -11.7789 2.0938 -0.7426 0.0000 0.0000 0.0000 2.9886 -4.9683 -16.1677 10.1398 13.8437 30.0919 3.0313 -0.2792 -0.6931 0.0000 0.0000 -0.0000
23.1217 38.9028 -4.7500 3.9086 34.7331 -4.5542 0.0000 0.0000 0.0000 6.0474 -1.8950 4.1680 0.1287 -1.2106 17.5414 -12.5879 -0.5262 -15.5891 0.0000 -0.0000 0.0000 0.0000 0.0000 0.0000 2.6983 3.6154 12.0310 0.2669 3.8769 -1.5785 -0.0000 0.0000 -0.0000 3.6566 -2.1398 -4.6813 -0.0000 0.0000 -0.0000 -34.0994 -2.7506 2.5098 -41.9272 -8.8214 -19.4555 -10.4817 5.1969 45.6293 14.2324 -4.6854 -1.2000 -0.0000 0.0000 -0.0000 33.9305 5.0654 3.4225 38.7535 21.5269 -5.4311 12.6552 5.7498 19.2213 -12.0450 2.2868 -0.7782 0.0000 0.0000 0.0000 2.8577 -4.3505 -16.0545 5.6000 10.9060 19.9819 0.7938 -0.0623 -1.2091 0.0000 0.0000 -0.0000
23.7400 39.0105 -4.0423 3.4766 32.9545 -4.2748 0.0000 0.0000 0.0000 5.9198 -2.0509 6.2208 0.8027 0.8525 15.3411 -12.5129 -0.4887 -15.2843 0.0000 -0.0000 0.0000 0.0000 0.0000 0.0000 2.5223 3.3492 11.5045 0.5643 3.5171 -1.6606 -0.0000 0.0000 -0.0000 3.6665 -2.2156 -4.6214 -0.0000 0.0000 -0.0000 -34.1594 -2.7768 2.5242 -41.1433 -8.5071 -20.6805 -9.9293 5.2008 45.7238 13.7966 -4.3346 -1.1227 -0.0000 0.0000 -0.0000 34.0158 5.0628 3.4290 38.9210 20.7804 -5.5439 12.5776 5.9396 18.9990 -11.6263 2.3852 -0.7597 0.0000 0.0000 0.0000 2.1199 -1.3694 -15.4056 1.8816 5.6038 10.2180 -4.0317 0.3623 -1.2921 0.0000 0.0000 -0.0000
24.3795 39.0526 -3.3122 3.0539 31.0283 -4.0386 0.0000 0.0000 0.0000 5.8665 -1.9439 8.0108 1.0998 2.7694 13.9085 -12.7021 -0.4904 -15.2386 0.0000 -0.0000 0.0000 0.0000 0.0000 0.0000 2.3054 3.1557 11.0213 0.9814 3.2132 -1.7076 -0.0000 0.0000 -0.0000 3.4560 -1.5261 -4.7254 -0.0000 0.0000 -0.0000 -34.4044 -2.8400 2.5653 -40.3890 -8.1905 -22.0770 -9.2947 5.2251 45.0873 13.4299 -3.6866 -1.0209 -0.0000 0.0000 -0.0000 34.1007 5.0646 3.4369 38.9930 19.6718 -6.6246 12.5327 5.5504 19.2817 -11.3455 2.2264 -0.7261 0.0000 0.0000 0.0000 1.4841 1.0432 -14.6449 -0.4898 1.0999 2.9592 -8.8831 0.7570 -1.7206 0.0000 0.0000 -0.0000
